<svg id="menu-icon" width="109" height="115" viewBox="0 0 109 115" fill="none" xmlns="http://www.w3.org/2000/svg">
    <line x1="12.5355" y1="3" x2="100" y2="90.4645" stroke="white" stroke-width="5" stroke-linecap="round"/>
    <line x1="18" y1="111.464" x2="105.464" y2="24" stroke="white" stroke-width="5" stroke-linecap="round"/>
    <path d="M10.6191 86.3713C10.5263 86.0125 10.6016 85.7173 10.845 85.4858L13.2319 83.2157C13.3275 83.1247 13.4432 83.0809 13.579 83.0843C13.7147 83.0877 13.828 83.1373 13.919 83.2329L21.9325 91.6586C22.0235 91.7543 22.0673 91.87 22.0639 92.0057C22.0605 92.1414 22.011 92.2548 21.9153 92.3457L19.5545 94.591C19.4589 94.682 19.3432 94.7258 19.2075 94.7224C19.0718 94.719 18.9584 94.6694 18.8675 94.5738L15.0219 90.5305L15.8561 93.3142C15.8879 93.3999 15.8932 93.5274 15.872 93.6966C15.8508 93.8658 15.7662 94.0207 15.6184 94.1613L14.7315 95.0048C14.5837 95.1454 14.4247 95.2221 14.2547 95.2348C14.0846 95.2475 13.9576 95.2358 13.8736 95.1998L11.1351 94.2271L14.9807 98.2705C15.0716 98.3661 15.1154 98.4818 15.112 98.6175C15.1086 98.7532 15.0591 98.8666 14.9634 98.9576L12.6027 101.203C12.507 101.294 12.3913 101.338 12.2556 101.334C12.1199 101.331 12.0065 101.281 11.9156 101.186L3.902 92.7599C3.81103 92.6642 3.76725 92.5485 3.77065 92.4128C3.77405 92.2771 3.82358 92.1637 3.91923 92.0728L6.30609 89.8027C6.54956 89.5711 6.84815 89.5107 7.20187 89.6214L11.8877 91.1267L10.6191 86.3713ZM30.1474 79.6724C30.243 79.5814 30.3587 79.5377 30.4944 79.5411C30.6301 79.5445 30.7435 79.594 30.8345 79.6896L32.5835 81.5287C32.6745 81.6243 32.7183 81.74 32.7149 81.8757C32.7115 82.0115 32.662 82.1248 32.5663 82.2158L24.3232 90.0557C24.2275 90.1466 24.1118 90.1904 23.9761 90.187C23.8404 90.1836 23.7271 90.1341 23.6361 90.0385L15.6225 81.6127C15.5315 81.5171 15.4878 81.4014 15.4912 81.2657C15.4946 81.1299 15.5441 81.0166 15.6397 80.9256L23.7525 73.2098C23.8481 73.1188 23.9638 73.075 24.0995 73.0784C24.2352 73.0818 24.3486 73.1313 24.4396 73.227L26.1886 75.0661C26.2796 75.1617 26.3234 75.2774 26.32 75.4131C26.3166 75.5488 26.2671 75.6622 26.1714 75.7531L21.0977 80.5786L21.8792 81.4004L26.2356 77.2571C26.3312 77.1662 26.4469 77.1224 26.5826 77.1258C26.7183 77.1292 26.8317 77.1787 26.9227 77.2743L28.5353 78.9699C28.6263 79.0656 28.67 79.1813 28.6666 79.317C28.6632 79.4527 28.6137 79.5661 28.5181 79.657L24.1617 83.8003L24.9432 84.622L30.1474 79.6724ZM34.8208 62.6829C34.9165 62.5919 35.0322 62.5481 35.1679 62.5515C35.3036 62.5549 35.417 62.6044 35.5079 62.7001L43.5215 71.1258C43.6125 71.2215 43.6562 71.3372 43.6528 71.4729C43.6494 71.6086 43.5999 71.722 43.5043 71.8129L41.4043 73.8101C41.1957 74.0086 40.9349 74.0827 40.6221 74.0324L34.3302 73.1107L37.7043 76.6584C37.7953 76.7541 37.8391 76.8697 37.8357 77.0055C37.8323 77.1412 37.7828 77.2545 37.6871 77.3455L35.2611 79.6528C35.1655 79.7438 35.0498 79.7876 34.9141 79.7842C34.7783 79.7808 34.665 79.7312 34.574 79.6356L26.5605 71.2098C26.4695 71.1142 26.4257 70.9985 26.4291 70.8628C26.4325 70.7271 26.482 70.6137 26.5777 70.5228L28.6906 68.5132C28.8993 68.3147 29.1516 68.2404 29.4474 68.2902L36.0247 69.5119L32.3776 65.6773C32.2866 65.5816 32.2429 65.4659 32.2463 65.3302C32.2497 65.1945 32.2992 65.0811 32.3948 64.9902L34.8208 62.6829ZM50.6273 65.2868C49.1665 66.6761 47.7038 67.4628 46.2393 67.6467C44.7834 67.8224 43.4146 67.2364 42.1327 65.8886L37.3941 60.9062C37.3031 60.8106 37.2593 60.6949 37.2627 60.5592C37.2661 60.4234 37.3156 60.3101 37.4113 60.2191L40.1373 57.6265C40.2329 57.5355 40.3486 57.4918 40.4843 57.4952C40.62 57.4986 40.7334 57.5481 40.8244 57.6437L45.7615 62.8348C46.1006 63.1913 46.4785 63.3536 46.8952 63.3216C47.3206 63.2813 47.7376 63.0669 48.1463 62.6782C48.555 62.2895 48.7857 61.8879 48.8386 61.4733C48.9001 61.0504 48.7613 60.6607 48.4223 60.3042L43.4851 55.1131C43.3941 55.0175 43.3504 54.9018 43.3538 54.7661C43.3572 54.6304 43.4067 54.517 43.5023 54.426L46.2283 51.8334C46.324 51.7425 46.4397 51.6987 46.5754 51.7021C46.7111 51.7055 46.8244 51.755 46.9154 51.8506L51.6541 56.8331C52.9359 58.1808 53.4483 59.5815 53.1911 61.0349C52.9427 62.4801 52.0881 63.8974 50.6273 65.2868Z" fill="white"/>
</svg>